<svg width="25" height="24" viewBox="0 0 25 24" fill="none" xmlns="http://www.w3.org/2000/svg">
<path d="M12.7666 22.0002C10.1137 22.0026 7.56878 20.9498 5.6929 19.0739C3.81702 17.198 2.76422 14.6531 2.76661 12.0002V11.8002C2.84839 7.79241 5.3144 4.22035 9.03297 2.72325C12.7515 1.22616 17.0047 2.09308 19.8406 4.92619C22.7031 7.78627 23.5598 12.0895 22.0109 15.8278C20.4621 19.5661 16.8131 22.0026 12.7666 22.0002ZM12.7666 13.4102L15.3566 16.0002L16.7666 14.5902L14.1766 12.0002L16.7666 9.41019L15.3566 8.00019L12.7666 10.5902L10.1766 8.00019L8.76661 9.41019L11.3566 12.0002L8.76661 14.5902L10.1766 16.0002L12.7666 13.4112V13.4102Z" fill="#2E3A59"/>
</svg>
