<svg width="42" height="44" viewBox="0 0 42 44" fill="none" xmlns="http://www.w3.org/2000/svg">
<path fill-rule="evenodd" clip-rule="evenodd" d="M37.7129 39.8099V39.81C37.715 40.3655 37.494 40.8987 37.0995 41.2899C36.7066 41.6822 36.1742 41.9029 35.6189 41.9035H6.28414C5.72828 41.9058 5.19478 41.6847 4.80354 41.2899C4.41137 40.8971 4.19075 40.365 4.18995 39.8099V2.09885L4.18995 2.09884C4.18795 1.54292 4.40898 1.00942 4.80355 0.617801L4.80355 0.617801C5.1958 0.223944 5.72828 0.00177863 6.28414 5.12801e-05H24.2795V5.12795e-05C24.837 -0.00384726 25.373 0.214687 25.7689 0.607252L37.1066 11.9471C37.4985 12.3435 37.7166 12.8794 37.7129 13.4368L37.7129 39.8099Z" fill="#EBECF0"/>
<path fill-rule="evenodd" clip-rule="evenodd" d="M37.7131 39.8095V41.905V41.905C37.7152 42.4609 37.4943 42.9944 37.0998 43.3861C36.7068 43.7784 36.1745 43.999 35.6192 43.9996H6.28438C5.12619 43.9983 4.18801 43.059 4.18801 41.9008V39.8073L4.18801 39.8073C4.18575 40.363 4.40684 40.8962 4.8016 41.2873L4.8016 41.2873C5.19453 41.6796 5.72693 41.9002 6.28219 41.9008H35.6148C36.7717 41.8992 37.7091 40.9616 37.7105 39.8047L37.7131 39.8095Z" fill="#C1C7D0"/>
<path fill-rule="evenodd" clip-rule="evenodd" d="M0 23.0498H41.9012V33.5277V33.5277C41.8994 34.684 40.964 35.6218 39.8077 35.6265H2.09881H2.09881C1.54295 35.6285 1.0095 35.4076 0.617771 35.0132H0.617771C0.222722 34.6198 0.000455231 34.0853 1.26523e-05 33.5277L0 23.0498Z" fill="#00D3FF"/>
<path fill-rule="evenodd" clip-rule="evenodd" d="M13.3101 25.4341H15.7485V29.7148C15.7485 30.6136 15.6689 31.2975 15.5095 31.7666C15.3502 32.2357 15.0297 32.6331 14.5481 32.959C14.0665 33.2848 13.4497 33.4478 12.6978 33.4478C11.9028 33.4478 11.2869 33.3403 10.8501 33.1255C10.4132 32.9106 10.0758 32.5964 9.83765 32.1829C9.59953 31.7693 9.45898 31.2581 9.41602 30.6494L11.7417 30.3325C11.7453 30.6799 11.7757 30.9377 11.833 31.106C11.8903 31.2743 11.987 31.4103 12.123 31.5142C12.2161 31.5822 12.3486 31.6162 12.5205 31.6162C12.7926 31.6162 12.9923 31.5151 13.1194 31.3127C13.2465 31.1104 13.3101 30.7694 13.3101 30.2896V25.4341ZM16.8099 25.4341H20.8543C21.7352 25.4341 22.3949 25.6436 22.8335 26.0625C23.2722 26.4814 23.4915 27.0776 23.4915 27.8511C23.4915 28.646 23.2525 29.2673 22.7745 29.7148C22.2964 30.1624 21.5669 30.3862 20.5857 30.3862H19.2537V33.3081H16.8099V25.4341ZM19.2537 28.791H19.8499C20.319 28.791 20.6484 28.7096 20.8382 28.5466C21.028 28.3837 21.1229 28.1751 21.1229 27.9209C21.1229 27.6738 21.0405 27.4644 20.8758 27.2925C20.7111 27.1206 20.4013 27.0347 19.9466 27.0347H19.2537V28.791ZM28.1729 30.4561V28.8179H31.9327V32.1748C31.213 32.6654 30.5765 32.9993 30.0233 33.1765C29.4701 33.3538 28.8139 33.4424 28.0548 33.4424C27.1202 33.4424 26.3584 33.283 25.7694 32.9644C25.1804 32.6457 24.7238 32.1712 24.3998 31.541C24.0757 30.9108 23.9137 30.1875 23.9137 29.3711C23.9137 28.5117 24.0909 27.7642 24.4454 27.1287C24.7999 26.4931 25.3191 26.0106 26.003 25.6812C26.5366 25.4269 27.2545 25.2998 28.1568 25.2998C29.027 25.2998 29.6777 25.3786 30.1092 25.5361C30.5407 25.6937 30.8988 25.9381 31.1834 26.2693C31.4681 26.6005 31.6821 27.0203 31.8253 27.5288L29.4781 27.9478C29.3814 27.6506 29.2176 27.4232 28.9867 27.2656C28.7557 27.1081 28.4612 27.0293 28.1031 27.0293C27.5696 27.0293 27.1444 27.2146 26.8275 27.5852C26.5106 27.9558 26.3521 28.5422 26.3521 29.3442C26.3521 30.1965 26.5124 30.8052 26.8329 31.1704C27.1533 31.5356 27.6 31.7183 28.1729 31.7183C28.4451 31.7183 28.7047 31.6789 28.9518 31.6001C29.1988 31.5213 29.4817 31.387 29.8004 31.1973V30.4561H28.1729Z" fill="white"/>
<path fill-rule="evenodd" clip-rule="evenodd" d="M4.19232 18.8574V23.0493H0L4.19232 18.8574ZM37.7529 18.8574L37.7131 23.0493H41.9225L37.7529 18.8574Z" fill="#057C95"/>
<path fill-rule="evenodd" clip-rule="evenodd" d="M37.7132 13.4333V13.7281H26.3766H26.3766C25.2175 13.7281 24.2778 12.7884 24.2778 11.6293V5.7349e-05L24.2778 5.73488e-05C24.8352 -0.00406527 25.3713 0.214233 25.7672 0.606596L37.1225 11.9397C37.5064 12.3413 37.7178 12.8774 37.7112 13.433L37.7132 13.4333Z" fill="#C1C7D0"/>
</svg>
