<svg width="42" height="44" viewBox="0 0 42 44" fill="none" xmlns="http://www.w3.org/2000/svg">
<path fill-rule="evenodd" clip-rule="evenodd" d="M37.7201 39.8096C37.7201 40.9667 36.782 41.9048 35.6249 41.9048H6.29153C5.13436 41.9048 4.19629 40.9667 4.19629 39.8096H4.19629V2.09528L4.19629 2.09528C4.19629 0.938108 5.13436 3.50664e-05 6.29153 3.50664e-05H24.2896V3.50659e-05C24.8465 -0.00318478 25.3818 0.215454 25.7772 0.607653L37.1125 11.9429C37.5047 12.3383 37.7233 12.8736 37.7201 13.4305V39.8096L37.7201 39.8096Z" fill="#EBECF0"/>
<path fill-rule="evenodd" clip-rule="evenodd" d="M37.7201 39.8096V41.9048C37.7201 43.062 36.782 44.0001 35.6249 44.0001H6.29153C5.13436 44.0001 4.19629 43.062 4.19629 41.9048V39.8096L4.19629 39.8096C4.19629 40.9667 5.13436 41.9048 6.29153 41.9048H35.6249C36.782 41.9048 37.7201 40.9667 37.7201 39.8096C37.7201 39.8096 37.7201 39.8096 37.7201 39.8096V39.8096Z" fill="#C1C7D0"/>
<path fill-rule="evenodd" clip-rule="evenodd" d="M0 22.7334H41.9048V33.2096C41.9048 34.3667 40.9667 35.3048 39.8095 35.3048H2.09525H2.09525C0.938082 35.3048 8.45921e-06 34.3667 8.45921e-06 33.2096V22.7334H0Z" fill="#0747A6"/>
<path fill-rule="evenodd" clip-rule="evenodd" d="M9.01562 25.0679H12.6304C13.3429 25.0679 13.9185 25.1645 14.3572 25.3579C14.7958 25.5513 15.1584 25.8288 15.4448 26.1904C15.7313 26.5521 15.939 26.9728 16.0679 27.4526C16.1968 27.9325 16.2612 28.4409 16.2612 28.978C16.2612 29.8195 16.1654 30.4721 15.9739 30.9358C15.7823 31.3995 15.5164 31.788 15.1763 32.1013C14.8361 32.4146 14.4709 32.6232 14.0806 32.7271C13.547 32.8703 13.0636 32.9419 12.6304 32.9419H9.01562V25.0679ZM11.4487 26.8511V31.1533H12.0449C12.5534 31.1533 12.915 31.0969 13.1299 30.9841C13.3447 30.8713 13.513 30.6744 13.6348 30.3933C13.7565 30.1122 13.8174 29.6566 13.8174 29.0264C13.8174 28.1921 13.6813 27.6209 13.4092 27.313C13.137 27.005 12.6859 26.8511 12.0557 26.8511H11.4487ZM16.6467 29.0103C16.6467 27.7248 17.0048 26.724 17.721 26.0078C18.4371 25.2917 19.4343 24.9336 20.7127 24.9336C22.0232 24.9336 23.033 25.2854 23.7419 25.989C24.4509 26.6926 24.8054 27.6782 24.8054 28.9458C24.8054 29.8661 24.6506 30.6207 24.3408 31.2097C24.0311 31.7987 23.5835 32.2571 22.9981 32.5847C22.4126 32.9124 21.683 33.0762 20.8093 33.0762C19.9213 33.0762 19.1864 32.9347 18.6045 32.6519C18.0226 32.369 17.5509 31.9214 17.1892 31.3091C16.8276 30.6968 16.6467 29.9305 16.6467 29.0103ZM19.0798 29.021C19.0798 29.8159 19.2275 30.387 19.523 30.7344C19.8184 31.0817 20.2203 31.2554 20.7288 31.2554C21.2516 31.2554 21.6562 31.0853 21.9426 30.7451C22.2291 30.4049 22.3723 29.7944 22.3723 28.9136C22.3723 28.1724 22.2228 27.6308 21.9238 27.2888C21.6248 26.9469 21.2193 26.7759 20.7073 26.7759C20.2167 26.7759 19.8228 26.9495 19.5256 27.2969C19.2284 27.6442 19.0798 28.2189 19.0798 29.021ZM30.7715 29.7246L32.9038 30.3691C32.7606 30.9671 32.535 31.4666 32.2271 31.8677C31.9191 32.2687 31.5369 32.5713 31.0803 32.7754C30.6238 32.9795 30.0428 33.0815 29.3374 33.0815C28.4816 33.0815 27.7825 32.9571 27.24 32.7083C26.6975 32.4594 26.2293 32.0217 25.8355 31.395C25.4416 30.7684 25.2446 29.9663 25.2446 28.9888C25.2446 27.6854 25.5911 26.6837 26.2839 25.9836C26.9768 25.2836 27.957 24.9336 29.2246 24.9336C30.2165 24.9336 30.9962 25.1341 31.5637 25.5352C32.1313 25.9362 32.5529 26.5521 32.8286 27.3828L30.6802 27.8608C30.605 27.6209 30.5262 27.4455 30.4439 27.3345C30.3078 27.1483 30.1413 27.005 29.9443 26.9048C29.7474 26.8045 29.5272 26.7544 29.2837 26.7544C28.7323 26.7544 28.3097 26.9764 28.0161 27.4204C27.7941 27.7498 27.6831 28.2672 27.6831 28.9727C27.6831 29.8464 27.8156 30.4452 28.0806 30.7693C28.3455 31.0933 28.7179 31.2554 29.1978 31.2554C29.6633 31.2554 30.0151 31.1247 30.2532 30.8633C30.4913 30.6019 30.6641 30.2223 30.7715 29.7246Z" fill="white"/>
<path fill-rule="evenodd" clip-rule="evenodd" d="M4.19634 18.8574V23.0479H0.00585938L4.19634 18.8574ZM37.7621 18.8574L37.7202 23.0479H41.9316L37.7621 18.8574Z" fill="#063266"/>
<path fill-rule="evenodd" clip-rule="evenodd" d="M37.8669 13.4305V13.7238H26.5108C25.3536 13.7238 24.4155 12.7858 24.4155 11.6286H24.4155V3.50667e-05L24.4155 3.50674e-05C24.9724 -0.00318485 25.5077 0.215454 25.9031 0.607653L37.2593 11.9429C37.6515 12.3383 37.8702 12.8736 37.8669 13.4305L37.8669 13.4305Z" fill="#C1C7D0"/>
</svg>
