<svg width="43" height="44" viewBox="0 0 43 44" fill="none" xmlns="http://www.w3.org/2000/svg">
<path fill-rule="evenodd" clip-rule="evenodd" d="M37.8146 39.82C37.8146 40.37 37.5939 40.898 37.1968 41.294C36.7997 41.69 36.2702 41.91 35.7186 41.91H6.30977C5.75822 41.91 5.20666 41.69 4.83161 41.294C4.43449 40.898 4.21387 40.37 4.21387 39.82V2.09C4.21387 1.54 4.43449 0.990001 4.83161 0.616001C5.20666 0.22 5.75822 0 6.30977 0H24.3566C24.9082 0 25.4597 0.22 25.8569 0.616001L37.2189 11.946C37.616 12.342 37.8366 12.87 37.8366 13.442V39.82H37.8146Z" fill="#EBECF0"/>
<path fill-rule="evenodd" clip-rule="evenodd" d="M37.8146 39.8203V41.9103C37.8146 42.4603 37.5939 43.0103 37.1968 43.3843C36.7997 43.7803 36.2702 44.0003 35.7186 44.0003H6.30977C5.14048 44.0003 4.21387 43.0543 4.21387 41.9103V39.8203C4.21387 40.3703 4.43449 40.8983 4.83161 41.2943C5.22873 41.6903 5.75822 41.9103 6.30977 41.9103H35.7186C36.8879 41.9103 37.8146 40.9643 37.8146 39.8203Z" fill="#C1C7D0"/>
<path fill-rule="evenodd" clip-rule="evenodd" d="M0 23.0557H42.0284V33.5277C42.0284 34.6937 41.0798 35.6177 39.9325 35.6177H2.11797C1.56641 35.6177 1.01486 35.3977 0.639803 35.0017C0.242684 34.6057 0.0220622 34.0777 0.0220622 33.5057V23.0557H0Z" fill="#FF3D3A"/>
<path fill-rule="evenodd" clip-rule="evenodd" d="M4.21387 18.8545V23.0565H0L4.21387 18.8545ZM37.8587 18.8545L37.8146 23.0565H42.0505L37.8587 18.8545Z" fill="#A22A28"/>
<path fill-rule="evenodd" clip-rule="evenodd" d="M37.8144 13.442V13.728H26.4524C25.2831 13.728 24.3564 12.782 24.3564 11.638V0C24.908 0 25.4596 0.22 25.8567 0.616001L37.2408 11.946C37.6158 12.342 37.8364 12.87 37.8144 13.442Z" fill="#C1C7D0"/>
<path fill-rule="evenodd" clip-rule="evenodd" d="M9.25879 25.4341H12.469L13.7078 30.2251L14.9413 25.4341H18.1407V33.3081H16.1478V27.3032L14.602 33.3081H12.7976L11.2571 27.3032V33.3081H9.25879V25.4341ZM19.0983 25.4341H23.1541C24.0375 25.4341 24.6991 25.6436 25.139 26.0625C25.5789 26.4814 25.7988 27.0776 25.7988 27.8511C25.7988 28.646 25.5591 29.2673 25.0797 29.7148C24.6003 30.1624 23.8687 30.3862 22.8848 30.3862H21.549V33.3081H19.0983V25.4341ZM21.549 28.791H22.1469C22.6173 28.791 22.9477 28.7096 23.138 28.5466C23.3283 28.3837 23.4234 28.1751 23.4234 27.9209C23.4234 27.6738 23.3409 27.4644 23.1757 27.2925C23.0105 27.1206 22.6999 27.0347 22.2439 27.0347H21.549V28.791ZM29.9019 31.8364H25.9053V30.0371L29.9019 25.2998H31.814V30.1392H32.8051V31.8364H31.814V33.3081H29.9019V31.8364ZM29.9019 30.1392V27.6631L27.7905 30.1392H29.9019Z" fill="white"/>
</svg>
