<svg width="42" height="44" viewBox="0 0 42 44" fill="none" xmlns="http://www.w3.org/2000/svg">
<path fill-rule="evenodd" clip-rule="evenodd" d="M37.7082 39.82C37.7082 40.37 37.4882 40.898 37.0922 41.294C36.6962 41.69 36.1682 41.91 35.6182 41.91H6.29215C5.74215 41.91 5.19215 41.69 4.81815 41.294C4.42215 40.898 4.20215 40.37 4.20215 39.82V2.09C4.20215 1.54 4.42215 0.990001 4.81815 0.616001C5.19215 0.22 5.74215 0 6.29215 0H24.2882C24.8382 0 25.3882 0.22 25.7842 0.616001L37.1142 11.946C37.5102 12.342 37.7302 12.87 37.7302 13.442V39.82H37.7082Z" fill="#EBECF0"/>
<path fill-rule="evenodd" clip-rule="evenodd" d="M37.7082 39.8203V41.9103C37.7082 42.4603 37.4882 43.0103 37.0922 43.3843C36.6962 43.7803 36.1682 44.0003 35.6182 44.0003H6.29215C5.12615 44.0003 4.20215 43.0543 4.20215 41.9103V39.8203C4.20215 40.3703 4.42215 40.8983 4.81815 41.2943C5.21415 41.6903 5.74215 41.9103 6.29215 41.9103H35.6182C36.7842 41.9103 37.7082 40.9643 37.7082 39.8203Z" fill="#C1C7D0"/>
<path fill-rule="evenodd" clip-rule="evenodd" d="M0 23.0557H41.91V33.5277C41.91 34.6937 40.964 35.6177 39.82 35.6177H2.112C1.562 35.6177 1.012 35.3977 0.638001 35.0017C0.242 34.6057 0.022 34.0777 0.022 33.5057V23.0557H0Z" fill="#47B347"/>
<path fill-rule="evenodd" clip-rule="evenodd" d="M10.229 25.4341H12.9092L14.3057 27.8564L15.6592 25.4341H18.3125L15.8633 29.2476L18.5435 33.3081H15.8096L14.2573 30.7783L12.6997 33.3081H9.98193L12.6997 29.2046L10.229 25.4341ZM18.741 25.4341H21.1741V31.3691H24.9714V33.3081H18.741V25.4341ZM25.0669 30.7031L27.3818 30.5581C27.432 30.9341 27.534 31.2205 27.688 31.4175C27.9386 31.7362 28.2967 31.8955 28.7622 31.8955C29.1095 31.8955 29.3772 31.814 29.5652 31.6511C29.7532 31.4882 29.8472 31.2993 29.8472 31.0845C29.8472 30.8804 29.7577 30.6978 29.5786 30.5366C29.3996 30.3755 28.9842 30.2233 28.3325 30.0801C27.2655 29.8402 26.5046 29.5215 26.0498 29.124C25.5915 28.7266 25.3623 28.2199 25.3623 27.604C25.3623 27.1994 25.4796 26.8171 25.7141 26.4573C25.9487 26.0974 26.3014 25.8145 26.7722 25.6086C27.2431 25.4027 27.8885 25.2998 28.7085 25.2998C29.7147 25.2998 30.4819 25.4869 31.01 25.8611C31.5382 26.2353 31.8524 26.8306 31.9526 27.647L29.6592 27.7812C29.5983 27.4268 29.4703 27.1689 29.2752 27.0078C29.08 26.8467 28.8106 26.7661 28.4668 26.7661C28.1839 26.7661 27.9709 26.8261 27.8276 26.946C27.6844 27.066 27.6128 27.2119 27.6128 27.3838C27.6128 27.5091 27.6719 27.6219 27.79 27.7222C27.9046 27.826 28.1768 27.9227 28.6065 28.0122C29.6699 28.2414 30.4317 28.4732 30.8919 28.7078C31.352 28.9423 31.6868 29.2332 31.8962 29.5806C32.1057 29.9279 32.2105 30.3164 32.2105 30.7461C32.2105 31.251 32.0708 31.7165 31.7915 32.1426C31.5122 32.5687 31.1219 32.8918 30.6206 33.1121C30.1193 33.3323 29.4873 33.4424 28.7246 33.4424C27.3854 33.4424 26.458 33.1846 25.9424 32.6689C25.4268 32.1533 25.1349 31.4981 25.0669 30.7031Z" fill="white"/>
<path fill-rule="evenodd" clip-rule="evenodd" d="M4.202 18.8545V23.0565H0L4.202 18.8545ZM37.752 18.8545L37.708 23.0565H41.932L37.752 18.8545Z" fill="#2A932A"/>
<path fill-rule="evenodd" clip-rule="evenodd" d="M37.7081 13.442V13.728H26.3781C25.2121 13.728 24.2881 12.782 24.2881 11.638V0C24.8381 0 25.3881 0.22 25.7841 0.616001L37.1361 11.946C37.5101 12.342 37.7301 12.87 37.7081 13.442Z" fill="#C1C7D0"/>
</svg>
