<svg width="42" height="44" viewBox="0 0 42 44" fill="none" xmlns="http://www.w3.org/2000/svg">
<path fill-rule="evenodd" clip-rule="evenodd" d="M37.7142 39.8096C37.7142 40.9667 36.7762 41.9048 35.619 41.9048H6.28567C5.1285 41.9048 4.19043 40.9667 4.19043 39.8096H4.19043V2.09528L4.19043 2.09528C4.19043 0.938108 5.1285 3.50664e-05 6.28567 3.50664e-05H24.2838V3.50659e-05C24.8407 -0.00318478 25.376 0.215454 25.7714 0.607653L37.1066 11.9429C37.4988 12.3383 37.7175 12.8736 37.7142 13.4305V39.8096L37.7142 39.8096Z" fill="#EBECF0"/>
<path fill-rule="evenodd" clip-rule="evenodd" d="M37.7142 39.8096V41.9048C37.7142 43.062 36.7762 44.0001 35.619 44.0001H6.28567C5.1285 44.0001 4.19043 43.062 4.19043 41.9048V39.8096L4.19043 39.8096C4.19043 40.9667 5.1285 41.9048 6.28567 41.9048H35.619C36.7762 41.9048 37.7142 40.9667 37.7142 39.8096C37.7142 39.8096 37.7142 39.8096 37.7142 39.8096V39.8096Z" fill="#C1C7D0"/>
<path fill-rule="evenodd" clip-rule="evenodd" d="M0 23.0479H41.9048V33.524C41.9048 34.6812 40.9667 35.6193 39.8095 35.6193H2.09525H2.09525C0.938082 35.6193 8.45921e-06 34.6812 8.45921e-06 33.524V23.0479H0Z" fill="#FF5630"/>
<path fill-rule="evenodd" clip-rule="evenodd" d="M10.3296 25.2998H14.374C15.2549 25.2998 15.9146 25.5093 16.3533 25.9282C16.7919 26.3472 17.0112 26.9434 17.0112 27.7168C17.0112 28.5117 16.7722 29.133 16.2942 29.5806C15.8162 30.0282 15.0866 30.252 14.1055 30.252H12.7734V33.1738H10.3296V25.2998ZM12.7734 28.6567H13.3696C13.8387 28.6567 14.1681 28.5753 14.3579 28.4124C14.5477 28.2494 14.6426 28.0409 14.6426 27.7866C14.6426 27.5395 14.5602 27.3301 14.3955 27.1582C14.2308 26.9863 13.9211 26.9004 13.4663 26.9004H12.7734V28.6567ZM17.7297 25.2998H21.3445C22.0571 25.2998 22.6327 25.3965 23.0713 25.5898C23.5099 25.7832 23.8725 26.0607 24.1589 26.4224C24.4454 26.784 24.6531 27.2048 24.782 27.6846C24.9109 28.1644 24.9753 28.6728 24.9753 29.21C24.9753 30.0514 24.8796 30.704 24.688 31.1677C24.4964 31.6314 24.2306 32.0199 23.8904 32.3333C23.5502 32.6466 23.185 32.8551 22.7947 32.959C22.2611 33.1022 21.7778 33.1738 21.3445 33.1738H17.7297V25.2998ZM20.1628 27.083V31.3853H20.759C21.2675 31.3853 21.6292 31.3289 21.844 31.2161C22.0588 31.1033 22.2271 30.9063 22.3489 30.6252C22.4706 30.3442 22.5315 29.8885 22.5315 29.2583C22.5315 28.424 22.3954 27.8529 22.1233 27.5449C21.8512 27.237 21.4 27.083 20.7698 27.083H20.1628ZM25.6777 25.2998H31.6934V26.9917H28.1216V28.3667H31.1724V29.9565H28.1216V33.1738H25.6777V25.2998Z" fill="white"/>
<path fill-rule="evenodd" clip-rule="evenodd" d="M4.19048 18.8574V23.0479H0L4.19048 18.8574ZM37.7562 18.8574L37.7143 23.0479H41.9257L37.7562 18.8574Z" fill="#DE350B"/>
<path fill-rule="evenodd" clip-rule="evenodd" d="M37.7142 13.4305V13.7238H26.3789C25.2218 13.7238 24.2837 12.7858 24.2837 11.6286V3.50664e-05L24.2837 3.50659e-05C24.8406 -0.00318478 25.3759 0.215454 25.7713 0.607653L37.1275 11.9429C37.512 12.3417 37.723 12.8766 37.7142 13.4305L37.7142 13.4305Z" fill="#C1C7D0"/>
</svg>
