<svg width="43" height="44" viewBox="0 0 43 44" fill="none" xmlns="http://www.w3.org/2000/svg">
<path fill-rule="evenodd" clip-rule="evenodd" d="M37.9468 39.8099V39.81C37.9489 40.3655 37.7279 40.8987 37.3334 41.2899C36.9405 41.6822 36.4081 41.9029 35.8528 41.9035H6.51802C5.96217 41.9058 5.42867 41.6847 5.03742 41.2899C4.64525 40.8971 4.42464 40.365 4.42384 39.8099V2.09885L4.42384 2.09884C4.42184 1.54292 4.64287 1.00942 5.03744 0.617801L5.03744 0.617801C5.42969 0.223944 5.96216 0.00177863 6.51802 5.12801e-05H24.5134V5.12795e-05C25.0709 -0.00384726 25.6069 0.214687 26.0028 0.607252L37.3405 11.9471C37.7323 12.3435 37.9505 12.8794 37.9468 13.4368L37.9468 39.8099Z" fill="#EBECF0"/>
<path fill-rule="evenodd" clip-rule="evenodd" d="M37.9461 39.8095V41.905V41.905C37.9481 42.4609 37.7272 42.9944 37.3327 43.3861C36.9398 43.7784 36.4074 43.999 35.8521 43.9996H6.51729C5.3591 43.9983 4.42092 43.059 4.42092 41.9008V39.8073L4.42092 39.8073C4.41866 40.363 4.63975 40.8962 5.03451 41.2873L5.03451 41.2873C5.42744 41.6796 5.95984 41.9002 6.5151 41.9008H35.8477C37.0046 41.8992 37.942 40.9616 37.9434 39.8047L37.9461 39.8095Z" fill="#C1C7D0"/>
<path fill-rule="evenodd" clip-rule="evenodd" d="M0.233398 23.0498H42.1346V33.5277V33.5277C42.1328 34.684 41.1974 35.6218 40.0411 35.6265H2.33221H2.33221C1.77635 35.6285 1.2429 35.4076 0.851169 35.0132H0.851169C0.45612 34.6198 0.233854 34.0853 0.233411 33.5277L0.233398 23.0498Z" fill="#374D86"/>
<path d="M8.29269 35C8.05965 35 7.85838 34.9895 7.6889 34.9684C7.51235 34.9473 7.36051 34.9227 7.2334 34.8946V33.314C7.33933 33.3351 7.45232 33.3562 7.57237 33.3772C7.68536 33.4053 7.80895 33.4194 7.94313 33.4194C8.20442 33.4194 8.39509 33.3702 8.51515 33.2719C8.6352 33.1735 8.71288 33.0225 8.74819 32.8188C8.7835 32.6221 8.80116 32.3762 8.80116 32.0811V25.1159H10.9727V31.902C10.9727 32.6537 10.8597 33.2578 10.6337 33.7144C10.4078 34.1711 10.0935 34.4977 9.69096 34.6944C9.28843 34.8981 8.82234 35 8.29269 35Z" fill="white"/>
<path d="M17.2628 30.353C17.2628 30.7604 17.1674 31.1468 16.9768 31.5121C16.7932 31.8774 16.4895 32.176 16.0658 32.4078C15.6421 32.6326 15.0806 32.745 14.3815 32.745C14.0143 32.745 13.7035 32.7274 13.4493 32.6923C13.2021 32.6642 12.9762 32.615 12.7714 32.5448C12.5666 32.4745 12.3406 32.3832 12.0934 32.2708V30.4584C12.503 30.6621 12.9126 30.8202 13.3222 30.9326C13.7318 31.0379 14.0849 31.0906 14.3815 31.0906C14.5369 31.0906 14.6675 31.066 14.7734 31.0169C14.8794 30.9677 14.957 30.9009 15.0065 30.8166C15.063 30.7323 15.0912 30.6375 15.0912 30.5321C15.0912 30.3987 15.0594 30.2863 14.9959 30.1949C14.9323 30.1036 14.8123 30.0088 14.6357 29.9104C14.4592 29.8121 14.2014 29.6927 13.8624 29.5522C13.5446 29.4187 13.2728 29.2817 13.0468 29.1412C12.8279 29.0007 12.6513 28.8426 12.5171 28.667C12.383 28.4914 12.2841 28.2877 12.2205 28.0558C12.157 27.817 12.1252 27.536 12.1252 27.2129C12.1252 26.7281 12.2452 26.3242 12.4854 26.0011C12.7325 25.6709 13.068 25.425 13.4917 25.2634C13.9154 25.0948 14.4027 25.0105 14.9535 25.0105C15.4761 25.0105 15.9316 25.0667 16.32 25.1791C16.7155 25.2845 17.0368 25.4074 17.284 25.5479L16.6378 27.118C16.3553 26.9705 16.0552 26.8546 15.7374 26.7703C15.4196 26.679 15.1371 26.6333 14.89 26.6333C14.7417 26.6333 14.6216 26.6544 14.5298 26.6965C14.438 26.7387 14.3709 26.7984 14.3285 26.8757C14.2862 26.9459 14.265 27.0267 14.265 27.118C14.265 27.2374 14.3038 27.3428 14.3815 27.4341C14.4662 27.5255 14.611 27.6273 14.8158 27.7397C15.0277 27.8451 15.3207 27.9891 15.695 28.1718C16.034 28.3263 16.32 28.4984 16.553 28.6881C16.7861 28.8778 16.9626 29.1061 17.0827 29.373C17.2028 29.6329 17.2628 29.9596 17.2628 30.353Z" fill="white"/>
<path d="M25.0133 28.8672C25.0133 29.4503 24.9462 29.9807 24.812 30.4584C24.6849 30.929 24.4801 31.3365 24.1976 31.6807C23.9222 32.0249 23.562 32.2884 23.1171 32.471C22.6793 32.6537 22.1461 32.745 21.5176 32.745C20.9032 32.745 20.3771 32.6537 19.9392 32.471C19.5014 32.2884 19.1412 32.0249 18.8588 31.6807C18.5763 31.3365 18.3644 30.929 18.2232 30.4584C18.089 29.9807 18.0219 29.4468 18.0219 28.8567C18.0219 28.0769 18.1455 27.399 18.3927 26.823C18.6398 26.2399 19.0212 25.7903 19.5367 25.4742C20.0522 25.1581 20.7161 25 21.5282 25C22.3615 25 23.0324 25.1616 23.5408 25.4847C24.0564 25.8008 24.4307 26.2504 24.6637 26.8335C24.8967 27.4096 25.0133 28.0875 25.0133 28.8672ZM20.2888 28.8672C20.2888 29.3168 20.3276 29.7067 20.4053 30.0369C20.4901 30.36 20.6242 30.6094 20.8079 30.785C20.9915 30.9607 21.228 31.0485 21.5176 31.0485C21.8283 31.0485 22.072 30.9607 22.2485 30.785C22.4251 30.6094 22.5522 30.36 22.6298 30.0369C22.7075 29.7067 22.7464 29.3168 22.7464 28.8672C22.7464 28.1858 22.6546 27.6484 22.471 27.255C22.2944 26.8616 21.9801 26.6649 21.5282 26.6649C21.2245 26.6649 20.9809 26.7562 20.7973 26.9389C20.6137 27.1145 20.483 27.3674 20.4053 27.6976C20.3276 28.0207 20.2888 28.4106 20.2888 28.8672Z" fill="white"/>
<path d="M33.2334 32.6396H30.3733L28.0534 27.3393H28.0111C28.0111 27.3393 28.0146 27.4025 28.0217 27.529C28.0287 27.6484 28.0393 27.8065 28.0534 28.0032C28.0676 28.1999 28.0782 28.4106 28.0852 28.6354C28.0993 28.8532 28.1064 29.0569 28.1064 29.2466V32.6396H26.1997V25.1159H29.0492L31.3584 30.3425H31.3902C31.3902 30.3425 31.3867 30.2828 31.3796 30.1633C31.3726 30.0439 31.362 29.8894 31.3479 29.6997C31.3408 29.51 31.3337 29.3098 31.3267 29.0991C31.3196 28.8883 31.3161 28.6951 31.3161 28.5195V25.1159H33.2334V32.6396Z" fill="white"/>
<path fill-rule="evenodd" clip-rule="evenodd" d="M4.42572 18.8574V23.0493H0.233398L4.42572 18.8574ZM37.9863 18.8574L37.9465 23.0493H42.1559L37.9863 18.8574Z" fill="#0C294B"/>
<path fill-rule="evenodd" clip-rule="evenodd" d="M37.9461 13.4333V13.7281H26.6095H26.6095C25.4504 13.7281 24.5107 12.7884 24.5107 11.6293V5.7349e-05L24.5107 5.73488e-05C25.0682 -0.00406527 25.6042 0.214233 26.0001 0.606596L37.3554 11.9397C37.7393 12.3413 37.9507 12.8774 37.9441 13.433L37.9461 13.4333Z" fill="#C1C7D0"/>
</svg>
