<svg width="28" height="28" viewBox="0 0 28 28" fill="none" xmlns="http://www.w3.org/2000/svg">
<path fill-rule="evenodd" clip-rule="evenodd" d="M23.3891 10.7668C20.8311 8.66822 17.5568 7.4082 13.9895 7.4082C10.4455 7.4082 7.19221 8.65136 4.64058 10.7247C4.56684 10.7837 4.5563 10.8911 4.61741 10.9649L5.37594 11.8688C5.43494 11.9384 5.54029 11.9489 5.60982 11.892C7.90018 10.0357 10.8142 8.92528 13.9895 8.92528C17.188 8.92528 20.121 10.0525 22.4177 11.932C22.4894 11.991 22.5947 11.9805 22.6537 11.9089L23.4122 11.0049C23.4734 10.9333 23.4628 10.8258 23.3891 10.7668ZM14.0317 11.2007C16.6571 11.2007 19.0613 12.1383 20.9302 13.6954C21.0019 13.7544 21.0103 13.8618 20.9513 13.9335L20.1927 14.8374C20.1338 14.9091 20.0284 14.9175 19.9568 14.8585C18.3512 13.5226 16.2842 12.7177 14.0317 12.7177C11.7793 12.7177 9.71231 13.5226 8.10463 14.8585C8.0351 14.9175 7.92764 14.9091 7.86864 14.8374L7.11011 13.9335C7.05111 13.8618 7.05954 13.7544 7.13118 13.6954C9.00223 12.1383 11.4064 11.2007 14.0317 11.2007ZM14.0317 14.9933C15.7258 14.9933 17.2724 15.617 18.4565 16.6474C18.5261 16.7085 18.5345 16.8138 18.4755 16.8833L17.7169 17.7873C17.6558 17.8589 17.5484 17.8673 17.4767 17.8062C16.5581 16.9992 15.3528 16.5104 14.0317 16.5104C12.7106 16.5104 11.5054 16.9992 10.5867 17.8083C10.5151 17.8694 10.4076 17.861 10.3465 17.7894L9.58797 16.8855C9.52897 16.8138 9.5374 16.7085 9.60482 16.6495C10.7911 15.617 12.3377 14.9933 14.0317 14.9933ZM14.0106 21.3147C13.2658 21.3147 12.662 20.711 12.662 19.9662C12.662 19.2215 13.2658 18.6177 14.0106 18.6177C14.7553 18.6177 15.3591 19.2215 15.3591 19.9662C15.3591 20.711 14.7553 21.3147 14.0106 21.3147Z" fill="black"/>
<path d="M14 3.80444e-06C9.71878 3.80444e-06 5.8816 1.93394 3.31122 4.97296L21.3817 23.0291V23.0291C21.1786 23.1938 20.9705 23.3522 20.7575 23.5039C18.8481 24.8627 16.5172 25.6691 14 25.6691C7.56588 25.6691 2.33097 20.4342 2.33097 14C2.33097 11.4849 3.13526 9.15801 4.49 7.25072L2.82007 5.58079C1.0519 7.92605 0 10.8423 0 14C0 21.7193 6.28069 28 14 28C18.2793 28 22.1123 26.0681 24.6827 23.0353L6.62042 4.9709L6.62042 4.9709C6.82321 4.80516 7.03139 4.64613 7.24462 4.49405C9.15395 3.13315 11.4829 2.33091 14 2.33091C20.4342 2.33091 25.6691 7.56585 25.6691 14C25.6691 16.5172 24.867 18.8461 23.506 20.7555C23.5039 20.7555 23.5039 20.7555 23.5039 20.7575L25.1718 22.4254C26.9461 20.0821 28.0001 17.1598 28.0001 14C28.0001 6.28066 21.7215 0 14 0" fill="url(#paint0_linear_468_18726)"/>
<defs>
<linearGradient id="paint0_linear_468_18726" x1="15.9417" y1="2.08837e-08" x2="14.2657" y2="28.0159" gradientUnits="userSpaceOnUse">
<stop stop-color="#1ACFF6"/>
<stop offset="0.520201" stop-color="#766AFF"/>
<stop offset="1" stop-color="#9718E5"/>
</linearGradient>
</defs>
</svg>
