<svg width="179" height="195" viewBox="0 0 179 195" fill="none" xmlns="http://www.w3.org/2000/svg">
<path d="M113.913 144.195L149.693 0.666504L60.5104 144.195H113.913Z" fill="url(#paint0_radial_2_8768)"/>
<rect x="50.6162" y="27.9238" width="59.7904" height="28.1366" fill="url(#paint1_linear_2_8768)"/>
<rect x="55.0107" y="22.6484" width="19.3439" height="16.7061" fill="url(#paint2_linear_2_8768)"/>
<rect x="85.7852" y="22.6484" width="19.3439" height="16.7061" fill="url(#paint3_linear_2_8768)"/>
<rect x="27.7539" y="51.6641" width="107.271" height="109.909" rx="4" fill="url(#paint4_linear_2_8768)"/>
<rect x="43.2529" y="154.539" width="11.4305" height="15.8269" fill="url(#paint5_linear_2_8768)"/>
<rect x="110.731" y="154.539" width="11.4305" height="15.8269" fill="url(#paint6_linear_2_8768)"/>
<path d="M103.758 63.0947H96.2583V130.879H90.9688V63.0947H45.1074V151.166H52.607V70.5943L83.4693 70.5943V138.379L103.758 138.378L103.758 63.0947Z" fill="url(#paint7_linear_2_8768)"/>
<path d="M78.1811 75.8825H57.8951V151.166H65.3947V83.382L70.6816 83.382V138.379H78.1811V75.8825Z" fill="url(#paint8_linear_2_8768)"/>
<path d="M116.546 63.0947H109.046V143.667H70.6842V151.166L116.546 151.166V63.0947Z" fill="url(#paint9_linear_2_8768)"/>
<path d="M76.9926 34.079C76.9926 34.7786 77.3168 35.4495 77.8939 35.9442C78.4711 36.4389 79.2538 36.7168 80.07 36.7168C80.8862 36.7168 81.669 36.4389 82.2461 35.9442C82.8232 35.4495 83.1475 34.7786 83.1475 34.079L80.07 34.079L76.9926 34.079Z" fill="white"/>
<circle cx="95.017" cy="31.0014" r="5.71525" fill="url(#paint10_linear_2_8768)"/>
<circle cx="65.1225" cy="31.0014" r="5.71525" fill="url(#paint11_linear_2_8768)"/>
<path d="M19.8398 45.5098V63.0952C19.8398 72.3217 27.3194 79.8013 36.546 79.8013V79.8013" stroke="url(#paint12_linear_2_8768)" stroke-width="12.3098" stroke-linecap="square" stroke-linejoin="round"/>
<path d="M142.938 45.5098V63.0952C142.938 72.3217 135.458 79.8013 126.231 79.8013V79.8013" stroke="url(#paint13_linear_2_8768)" stroke-width="12.3098" stroke-linecap="square" stroke-linejoin="round"/>
<path d="M59.8821 144.195L24.3809 0.666504L112.867 144.195H59.8821Z" fill="url(#paint14_radial_2_8768)"/>
<g filter="url(#filter0_f_2_8768)">
<path d="M53.3959 70.0844C63.9435 75.0533 43.4918 89.4382 46.2762 123.958C47.7982 142.828 59.7856 160.186 68.6903 170.216C69.226 170.769 69.5853 171.155 69.7284 171.368C69.3877 170.995 69.0414 170.611 68.6903 170.216C64.275 165.657 47.8779 149.731 41.7933 125.527C36.2126 103.329 42.8482 65.1154 53.3959 70.0844Z" fill="url(#paint15_linear_2_8768)"/>
<path d="M69.7284 171.368C60.7472 161.553 47.8582 143.572 46.2762 123.958C43.4918 89.4382 63.9435 75.0533 53.3959 70.0844C42.8482 65.1154 36.2126 103.329 41.7933 125.527C48.6161 152.667 68.4052 169.399 69.7284 171.368Z" stroke="url(#paint16_radial_2_8768)" stroke-width="0.87927"/>
</g>
<g filter="url(#filter1_f_2_8768)">
<path d="M122.763 28.5149C113.545 35.3212 135.878 45.7864 139.611 80.2978C141.651 99.1633 133.35 118.435 126.651 129.929C126.239 130.571 125.965 131.016 125.867 131.252C126.126 130.824 126.387 130.383 126.651 129.929C130.05 124.638 142.856 105.978 144.212 81.0313C145.455 58.1513 131.981 21.7086 122.763 28.5149Z" fill="url(#paint17_linear_2_8768)"/>
<path d="M125.867 131.252C132.679 119.956 141.732 99.9071 139.611 80.2978C135.878 45.7864 113.545 35.3212 122.763 28.5149C131.981 21.7086 145.455 58.1513 144.212 81.0313C142.692 109.004 126.774 129.073 125.867 131.252Z" stroke="url(#paint18_radial_2_8768)" stroke-width="0.87927"/>
</g>
<path d="M42.5555 119.81L39.7686 117.307L45.0329 112.146L48.1295 114.96L42.5555 119.81Z" fill="#7D92FF"/>
<path d="M169.342 136.672L171.676 135.897L172.859 140.59L170.246 141.44L169.342 136.672Z" fill="url(#paint19_linear_2_8768)"/>
<path d="M38.4982 64.9559L40.0849 61.6L46.4401 65.1994L44.6447 68.9376L38.4982 64.9559Z" fill="url(#paint20_linear_2_8768)"/>
<path d="M115.217 161.038L116.578 158.159L122.031 161.247L120.49 164.454L115.217 161.038Z" fill="url(#paint21_linear_2_8768)"/>
<path d="M137.455 135.381L139.689 136.826L136.53 141.001L134.044 139.372L137.455 135.381Z" fill="url(#paint22_linear_2_8768)"/>
<path d="M166.122 191.465L167.275 189.027L171.892 191.642L170.587 194.357L166.122 191.465Z" fill="url(#paint23_linear_2_8768)"/>
<path d="M43.2951 179.927L44.8818 176.571L51.237 180.17L49.4416 183.908L43.2951 179.927Z" fill="url(#paint24_linear_2_8768)"/>
<path d="M53.2063 51.843L56.7293 50.6733L58.5143 57.7555L54.5707 59.0383L53.2063 51.843Z" fill="url(#paint25_linear_2_8768)"/>
<path d="M146.741 170.147L150.264 168.977L152.049 176.059L148.106 177.342L146.741 170.147Z" fill="url(#paint26_linear_2_8768)"/>
<path d="M117.154 25.0286L120.678 23.8588L122.463 30.941L118.519 32.2238L117.154 25.0286Z" fill="url(#paint27_linear_2_8768)"/>
<path d="M178.421 99.6037L175.919 102.391L170.757 97.1263L173.571 94.0297L178.421 99.6037Z" fill="#7D92FF"/>
<path d="M43.1925 136.177L43.4105 139.882L36.1076 139.774L35.8892 135.632L43.1925 136.177Z" fill="url(#paint28_linear_2_8768)"/>
<path d="M19.5655 99.1467L17.4143 101.694L11.9014 96.4578L14.5906 92.6367L19.5655 99.1467Z" fill="#7D92FF"/>
<path d="M32.7398 102.016L30.7657 101.609L31.7315 97.0894L34.5253 97.4092L32.7398 102.016Z" fill="#7D92FF"/>
<path d="M2.29057 161.177L0.316465 160.771L1.28232 156.251L4.07612 156.57L2.29057 161.177Z" fill="#7D92FF"/>
<path d="M118.005 68.7452L114.504 67.8065L115.531 61.8712L119.546 63.0421L118.005 68.7452Z" fill="url(#paint29_linear_2_8768)"/>
<path d="M134.132 49.014L135.613 45.8785L143.027 49.4353L140.942 52.9993L134.132 49.014Z" fill="url(#paint30_linear_2_8768)"/>
<defs>
<filter id="filter0_f_2_8768" x="25.356" y="55.231" width="58.7109" height="130.407" filterUnits="userSpaceOnUse" color-interpolation-filters="sRGB">
<feFlood flood-opacity="0" result="BackgroundImageFix"/>
<feBlend mode="normal" in="SourceGraphic" in2="BackgroundImageFix" result="shape"/>
<feGaussianBlur stdDeviation="6.98657" result="effect1_foregroundBlur_2_8768"/>
</filter>
<filter id="filter1_f_2_8768" x="106.138" y="13.269" width="52.5664" height="132.184" filterUnits="userSpaceOnUse" color-interpolation-filters="sRGB">
<feFlood flood-opacity="0" result="BackgroundImageFix"/>
<feBlend mode="normal" in="SourceGraphic" in2="BackgroundImageFix" result="shape"/>
<feGaussianBlur stdDeviation="6.98657" result="effect1_foregroundBlur_2_8768"/>
</filter>
<radialGradient id="paint0_radial_2_8768" cx="0" cy="0" r="1" gradientUnits="userSpaceOnUse" gradientTransform="translate(100.706 15.9774) rotate(98.6577) scale(129.696 54.5388)">
<stop stop-color="#7D92FF"/>
<stop offset="1" stop-color="#7D92FF" stop-opacity="0"/>
</radialGradient>
<linearGradient id="paint1_linear_2_8768" x1="67.017" y1="31.5901" x2="61.6694" y2="55.0579" gradientUnits="userSpaceOnUse">
<stop stop-color="#150333"/>
<stop offset="1" stop-color="#090B12"/>
</linearGradient>
<linearGradient id="paint2_linear_2_8768" x1="66.0241" y1="22.6484" x2="65.1597" y2="39.3792" gradientUnits="userSpaceOnUse">
<stop stop-color="#1ACFF6"/>
<stop offset="0.520201" stop-color="#766AFF"/>
<stop offset="1" stop-color="#9718E5"/>
</linearGradient>
<linearGradient id="paint3_linear_2_8768" x1="96.7985" y1="22.6484" x2="95.9341" y2="39.3792" gradientUnits="userSpaceOnUse">
<stop stop-color="#1ACFF6"/>
<stop offset="0.520201" stop-color="#766AFF"/>
<stop offset="1" stop-color="#9718E5"/>
</linearGradient>
<linearGradient id="paint4_linear_2_8768" x1="57.1789" y1="65.9855" x2="18.7867" y2="143.369" gradientUnits="userSpaceOnUse">
<stop stop-color="#150333"/>
<stop offset="1" stop-color="#090B12"/>
</linearGradient>
<linearGradient id="paint5_linear_2_8768" x1="46.3884" y1="156.601" x2="39.9655" y2="166.181" gradientUnits="userSpaceOnUse">
<stop stop-color="#150333"/>
<stop offset="1" stop-color="#090B12"/>
</linearGradient>
<linearGradient id="paint6_linear_2_8768" x1="113.867" y1="156.601" x2="107.444" y2="166.181" gradientUnits="userSpaceOnUse">
<stop stop-color="#150333"/>
<stop offset="1" stop-color="#090B12"/>
</linearGradient>
<linearGradient id="paint7_linear_2_8768" x1="85.7803" y1="63.0947" x2="79.2933" y2="151.053" gradientUnits="userSpaceOnUse">
<stop stop-color="#1ACFF6"/>
<stop offset="0.520201" stop-color="#766AFF"/>
<stop offset="1" stop-color="#9718E5"/>
</linearGradient>
<linearGradient id="paint8_linear_2_8768" x1="85.7803" y1="63.0947" x2="79.2933" y2="151.053" gradientUnits="userSpaceOnUse">
<stop stop-color="#1ACFF6"/>
<stop offset="0.520201" stop-color="#766AFF"/>
<stop offset="1" stop-color="#9718E5"/>
</linearGradient>
<linearGradient id="paint9_linear_2_8768" x1="85.7803" y1="63.0947" x2="79.2933" y2="151.053" gradientUnits="userSpaceOnUse">
<stop stop-color="#1ACFF6"/>
<stop offset="0.520201" stop-color="#766AFF"/>
<stop offset="1" stop-color="#9718E5"/>
</linearGradient>
<linearGradient id="paint10_linear_2_8768" x1="92.4372" y1="26.7756" x2="88.5034" y2="34.8995" gradientUnits="userSpaceOnUse">
<stop stop-color="#150333"/>
<stop offset="1" stop-color="#090B12"/>
</linearGradient>
<linearGradient id="paint11_linear_2_8768" x1="62.5427" y1="26.7756" x2="58.6089" y2="34.8995" gradientUnits="userSpaceOnUse">
<stop stop-color="#150333"/>
<stop offset="1" stop-color="#090B12"/>
</linearGradient>
<linearGradient id="paint12_linear_2_8768" x1="24.4224" y1="49.9781" x2="9.37949" y2="65.1128" gradientUnits="userSpaceOnUse">
<stop stop-color="#150333"/>
<stop offset="1" stop-color="#090B12"/>
</linearGradient>
<linearGradient id="paint13_linear_2_8768" x1="138.355" y1="49.9781" x2="153.398" y2="65.1128" gradientUnits="userSpaceOnUse">
<stop stop-color="#150333"/>
<stop offset="1" stop-color="#090B12"/>
</linearGradient>
<radialGradient id="paint14_radial_2_8768" cx="0" cy="0" r="1" gradientUnits="userSpaceOnUse" gradientTransform="translate(72.9859 15.9774) rotate(81.4089) scale(129.673 54.1222)">
<stop stop-color="#7D92FF"/>
<stop offset="1" stop-color="#7D92FF" stop-opacity="0"/>
</radialGradient>
<linearGradient id="paint15_linear_2_8768" x1="56.826" y1="69.6436" x2="36.9005" y2="167.743" gradientUnits="userSpaceOnUse">
<stop stop-color="#1ACFF6"/>
<stop offset="0.520201" stop-color="#766AFF"/>
<stop offset="1" stop-color="#9718E5"/>
</linearGradient>
<radialGradient id="paint16_radial_2_8768" cx="0" cy="0" r="1" gradientUnits="userSpaceOnUse" gradientTransform="translate(41.4687 330.067) rotate(75.5389) scale(128.18 165.494)">
<stop stop-color="white"/>
<stop offset="1" stop-color="white" stop-opacity="0"/>
</radialGradient>
<linearGradient id="paint17_linear_2_8768" x1="119.384" y1="28.7021" x2="157.637" y2="121.368" gradientUnits="userSpaceOnUse">
<stop stop-color="#1ACFF6"/>
<stop offset="0.520201" stop-color="#766AFF"/>
<stop offset="1" stop-color="#9718E5"/>
</linearGradient>
<radialGradient id="paint18_radial_2_8768" cx="0" cy="0" r="1" gradientUnits="userSpaceOnUse" gradientTransform="translate(182.502 282.472) rotate(93.4528) scale(128.307 162.145)">
<stop stop-color="white"/>
<stop offset="1" stop-color="white" stop-opacity="0"/>
</radialGradient>
<linearGradient id="paint19_linear_2_8768" x1="173.626" y1="134.256" x2="169.843" y2="141.246" gradientUnits="userSpaceOnUse">
<stop stop-color="#FFEA7D"/>
<stop offset="0.527145" stop-color="#F19090"/>
<stop offset="1" stop-color="#7D92FF"/>
</linearGradient>
<linearGradient id="paint20_linear_2_8768" x1="40.3262" y1="57.7624" x2="44.0135" y2="69.1762" gradientUnits="userSpaceOnUse">
<stop stop-color="#FFEA7D"/>
<stop offset="0.527145" stop-color="#F19090"/>
<stop offset="1" stop-color="#7D92FF"/>
</linearGradient>
<linearGradient id="paint21_linear_2_8768" x1="116.785" y1="154.866" x2="119.949" y2="164.659" gradientUnits="userSpaceOnUse">
<stop stop-color="#FFEA7D"/>
<stop offset="0.527145" stop-color="#F19090"/>
<stop offset="1" stop-color="#7D92FF"/>
</linearGradient>
<linearGradient id="paint22_linear_2_8768" x1="142.393" y1="137.36" x2="133.935" y2="138.9" gradientUnits="userSpaceOnUse">
<stop stop-color="#FFEA7D"/>
<stop offset="0.527145" stop-color="#F19090"/>
<stop offset="1" stop-color="#7D92FF"/>
</linearGradient>
<linearGradient id="paint23_linear_2_8768" x1="167.45" y1="186.239" x2="170.129" y2="194.531" gradientUnits="userSpaceOnUse">
<stop stop-color="#FFEA7D"/>
<stop offset="0.527145" stop-color="#F19090"/>
<stop offset="1" stop-color="#7D92FF"/>
</linearGradient>
<linearGradient id="paint24_linear_2_8768" x1="45.1231" y1="172.733" x2="48.8103" y2="184.147" gradientUnits="userSpaceOnUse">
<stop stop-color="#FFEA7D"/>
<stop offset="0.527145" stop-color="#F19090"/>
<stop offset="1" stop-color="#7D92FF"/>
</linearGradient>
<linearGradient id="paint25_linear_2_8768" x1="58.7653" y1="57.3209" x2="52.4214" y2="53.1842" gradientUnits="userSpaceOnUse">
<stop stop-color="#1ACFF6"/>
<stop offset="0.520201" stop-color="#766AFF"/>
<stop offset="1" stop-color="#9718E5"/>
</linearGradient>
<linearGradient id="paint26_linear_2_8768" x1="152.3" y1="175.625" x2="145.957" y2="171.488" gradientUnits="userSpaceOnUse">
<stop stop-color="#1ACFF6"/>
<stop offset="0.520201" stop-color="#766AFF"/>
<stop offset="1" stop-color="#9718E5"/>
</linearGradient>
<linearGradient id="paint27_linear_2_8768" x1="122.714" y1="30.5064" x2="116.37" y2="26.3698" gradientUnits="userSpaceOnUse">
<stop stop-color="#1ACFF6"/>
<stop offset="0.520201" stop-color="#766AFF"/>
<stop offset="1" stop-color="#9718E5"/>
</linearGradient>
<linearGradient id="paint28_linear_2_8768" x1="36.4625" y1="140.129" x2="42.1001" y2="135.072" gradientUnits="userSpaceOnUse">
<stop stop-color="#1ACFF6"/>
<stop offset="0.520201" stop-color="#766AFF"/>
<stop offset="1" stop-color="#9718E5"/>
</linearGradient>
<linearGradient id="paint29_linear_2_8768" x1="115.518" y1="61.8786" x2="118.716" y2="68.3349" gradientUnits="userSpaceOnUse">
<stop stop-color="#1ACFF6"/>
<stop offset="0.520201" stop-color="#766AFF"/>
<stop offset="1" stop-color="#9718E5"/>
</linearGradient>
<linearGradient id="paint30_linear_2_8768" x1="143.024" y1="49.9582" x2="134.144" y2="49.2393" gradientUnits="userSpaceOnUse">
<stop stop-color="#1ACFF6"/>
<stop offset="0.520201" stop-color="#766AFF"/>
<stop offset="1" stop-color="#9718E5"/>
</linearGradient>
</defs>
</svg>
