<svg width="28" height="28" viewBox="0 0 28 28" fill="none" xmlns="http://www.w3.org/2000/svg">
<path d="M20.3309 10.8755C21.2834 10.2593 21.8589 9.20256 21.8598 8.06813C21.8579 6.21912 20.3595 4.72069 18.5105 4.71875C17.2126 4.71965 16.0321 5.47027 15.4807 6.64519C17.6349 7.29639 19.1097 9.27998 19.1129 11.5305C19.1142 12.7226 18.6957 13.877 17.9308 14.7914C18.8164 15.3354 19.5807 16.0558 20.176 16.9078H22.9466C23.4261 16.905 23.8141 16.517 23.817 16.0374V15.8501C23.8116 13.6254 22.4201 11.6399 20.3309 10.8755Z" fill="black"/>
<path d="M10.0893 14.7953C9.32437 13.881 8.90586 12.7265 8.90715 11.5344V11.5344C8.91036 9.28389 10.3852 7.30031 12.5394 6.6491V6.6491C11.9878 5.47433 10.8074 4.72377 9.5096 4.72266V4.72266C7.66059 4.72459 6.16217 6.22303 6.16022 8.07204L6.16022 8.07196C6.1611 9.20639 6.73658 10.2631 7.68905 10.8793L7.68905 10.8793C5.59865 11.6442 4.20704 13.6316 4.20313 15.8575V16.0449L4.20312 16.0449C4.20599 16.5244 4.59401 16.9124 5.07352 16.9153H7.8441C8.43927 16.0622 9.20348 15.3406 10.0893 14.7953L10.0893 14.7953Z" fill="black"/>
<path d="M16.2768 15.0281C17.4619 14.2606 18.1777 12.9452 18.1787 11.5334V11.5334C18.1763 9.23242 16.3116 7.36767 14.0107 7.36523V7.36523C11.7093 7.36717 9.84407 9.23202 9.84166 11.5334V11.5334C9.84285 12.9452 10.5587 14.2605 11.7436 15.0281C9.14272 15.9801 7.41134 18.4528 7.40649 21.2225V21.4554L7.40649 21.4554C7.40696 22.0535 7.89148 22.5385 8.48964 22.5395H19.5308C20.1293 22.539 20.6144 22.0539 20.6148 21.4554V21.2225V21.2225C20.6096 18.4527 18.8779 15.98 16.2768 15.0281L16.2768 15.0281Z" fill="black"/>
<path d="M14 3.80444e-06C9.71878 3.80444e-06 5.8816 1.93394 3.31122 4.97296L21.3817 23.0291V23.0291C21.1786 23.1938 20.9705 23.3522 20.7575 23.5039C18.8481 24.8627 16.5172 25.6691 14 25.6691C7.56588 25.6691 2.33097 20.4342 2.33097 14C2.33097 11.4849 3.13526 9.15801 4.49 7.25072L2.82007 5.58079C1.0519 7.92605 0 10.8423 0 14C0 21.7193 6.28069 28 14 28C18.2793 28 22.1123 26.0681 24.6827 23.0353L6.62042 4.9709L6.62042 4.9709C6.82321 4.80516 7.03139 4.64613 7.24462 4.49405C9.15395 3.13315 11.4829 2.33091 14 2.33091C20.4342 2.33091 25.6691 7.56585 25.6691 14C25.6691 16.5172 24.867 18.8461 23.506 20.7555C23.5039 20.7555 23.5039 20.7555 23.5039 20.7575L25.1718 22.4254C26.9461 20.0821 28.0001 17.1598 28.0001 14C28.0001 6.28066 21.7215 0 14 0" fill="url(#paint0_linear_468_18737)"/>
<defs>
<linearGradient id="paint0_linear_468_18737" x1="15.9417" y1="2.08837e-08" x2="14.2657" y2="28.0159" gradientUnits="userSpaceOnUse">
<stop stop-color="#1ACFF6"/>
<stop offset="0.520201" stop-color="#766AFF"/>
<stop offset="1" stop-color="#9718E5"/>
</linearGradient>
</defs>
</svg>
