<svg width="30" height="28" viewBox="0 0 30 28" fill="none" xmlns="http://www.w3.org/2000/svg">
<path fill-rule="evenodd" clip-rule="evenodd" d="M28.9084 17.9962L26.4722 20.3999L25.4327 21.4394L20.0081 26.8315L13.0894 28.0009L14.3237 21.1795L19.326 16.2097L20.8202 14.7155L23.2564 12.3118C23.7112 11.857 24.4258 11.857 24.8805 12.3118L28.9409 16.3396C29.3631 16.8269 29.3631 17.5415 28.9084 17.9962ZM16.3377 24.8501L19.2286 24.3954L23.224 20.4L20.7878 17.9963L16.7924 21.9917L16.3377 24.8501ZM24.3934 15.1382L26.1474 16.8598C26.3423 17.0547 26.3423 17.347 26.1474 17.5744L24.8481 18.8412L22.4119 16.405L23.7112 15.1382C23.9061 14.9433 24.1985 14.9433 24.3934 15.1382Z" fill="url(#paint0_linear_468_18744)"/>
<path fill-rule="evenodd" clip-rule="evenodd" d="M23.6788 2.27378H21.3725V4.54756C21.3725 5.81439 20.3656 6.82135 19.0988 6.82135H7.59992C6.3331 6.82135 5.32614 5.81439 5.32614 4.54756V2.27378H3.01988V25.0766H11.0756V27.3503H3.01988C1.75305 27.3503 0.746094 26.3434 0.746094 25.0766V2.27378C0.746094 1.00696 1.75305 0 3.01988 0H23.7113C24.9781 0 25.9851 1.00696 25.9851 2.27378V10.2645H23.6788V2.27378ZM19.0987 2.27393H7.63237V4.54771H19.0987V2.27393ZM6.46313 12.5382C6.46313 11.921 6.98286 11.4013 7.60003 11.4013H17.9295C18.5467 11.4013 19.0664 11.921 19.0664 12.5382C19.0664 13.1553 18.5467 13.6751 17.9295 13.6751H7.60003C6.98286 13.6751 6.46313 13.1878 6.46313 12.5382ZM6.46308 18.2549C6.46308 17.6377 6.9828 17.118 7.59997 17.118H12.2125C12.8297 17.118 13.3494 17.6377 13.3494 18.2549C13.3494 18.8721 12.8297 19.3918 12.2125 19.3918H7.59997C6.9828 19.3918 6.46308 18.8721 6.46308 18.2549Z" fill="url(#paint1_linear_468_18744)"/>
<defs>
<linearGradient id="paint0_linear_468_18744" x1="22.2924" y1="11.9707" x2="21.3408" y2="28.0109" gradientUnits="userSpaceOnUse">
<stop stop-color="#1ACFF6"/>
<stop offset="0.520201" stop-color="#766AFF"/>
<stop offset="1" stop-color="#9718E5"/>
</linearGradient>
<linearGradient id="paint1_linear_468_18744" x1="15.1157" y1="2.03992e-08" x2="13.3428" y2="27.3489" gradientUnits="userSpaceOnUse">
<stop stop-color="#1ACFF6"/>
<stop offset="0.520201" stop-color="#766AFF"/>
<stop offset="1" stop-color="#9718E5"/>
</linearGradient>
</defs>
</svg>
