<svg width="28" height="28" viewBox="0 0 28 28" fill="none" xmlns="http://www.w3.org/2000/svg">
<path d="M13.9926 16.281C14.0948 16.281 14.1942 16.2708 14.292 16.2533L12.3668 14.3281C12.3493 14.426 12.3391 14.5253 12.3391 14.6275C12.3391 15.5405 13.0797 16.281 13.9926 16.281Z" fill="#040000"/>
<path fill-rule="evenodd" clip-rule="evenodd" d="M16.8025 6.44141L17.1875 9.36738H22.9999V19.8427L18.0189 14.8641C17.8462 12.92 16.2943 11.3682 14.3552 11.198L10.9999 7.84272L11.1825 6.44141H16.8025ZM17.6068 21.0788H4.98511V9.36995H5.8979L10.2425 13.7145C10.055 14.1833 9.94644 14.689 9.94644 15.2219C9.94644 17.4546 11.7647 19.2679 13.9925 19.2679C14.5102 19.2679 15.023 19.1674 15.5024 18.9719L17.6068 21.0788Z" fill="black"/>
<path d="M14 3.80444e-06C9.71875 3.80444e-06 5.88158 1.93394 3.31121 4.97296L21.3816 23.0291V23.0291C21.1786 23.1938 20.9704 23.3522 20.7575 23.5039C18.8481 24.8627 16.5172 25.6691 14 25.6691C7.56586 25.6691 2.33096 20.4342 2.33096 14C2.33096 11.4849 3.13525 9.15801 4.48999 7.25072L2.82007 5.58079C1.05189 7.92605 0 10.8423 0 14C0 21.7193 6.28067 28 14 28C18.2792 28 22.1123 26.0681 24.6826 23.0353L6.6204 4.9709L6.6204 4.9709C6.82319 4.80516 7.03137 4.64613 7.2446 4.49405C9.15393 3.13315 11.4829 2.33091 14 2.33091C20.4342 2.33091 25.6691 7.56585 25.6691 14C25.6691 16.5172 24.8669 18.8461 23.5059 20.7555C23.5039 20.7555 23.5039 20.7555 23.5039 20.7575L25.1718 22.4254C26.9461 20.0821 28 17.1598 28 14C28 6.28066 21.7214 0 14 0" fill="url(#paint0_linear_468_18718)"/>
<defs>
<linearGradient id="paint0_linear_468_18718" x1="15.9416" y1="2.08837e-08" x2="14.2656" y2="28.0159" gradientUnits="userSpaceOnUse">
<stop stop-color="#1ACFF6"/>
<stop offset="0.520201" stop-color="#766AFF"/>
<stop offset="1" stop-color="#9718E5"/>
</linearGradient>
</defs>
</svg>
