<svg width="21" height="20" viewBox="0 0 21 20" fill="none" xmlns="http://www.w3.org/2000/svg">
<path d="M20.4606 1.12617L14.3676 19.4137C14.262 19.725 13.9873 19.9491 13.6609 19.9911H13.5488C13.2558 19.9911 12.9833 19.8414 12.8249 19.5947L9.98106 15.1218C9.72467 14.7222 9.83994 14.19 10.2396 13.9325C10.4335 13.8076 10.6694 13.7655 10.8946 13.8151C11.1197 13.8657 11.3147 14.0036 11.4375 14.1997L13.3077 17.1643L18.2803 2.22033L3.35365 7.19293L6.29236 9.06305C6.69418 9.31729 6.81375 9.85054 6.55953 10.2524C6.3053 10.6542 5.77204 10.7737 5.37022 10.5195L0.897342 7.68422C0.618335 7.50539 0.466436 7.18222 0.506286 6.85365C0.547223 6.52401 0.77237 6.24715 1.08694 6.14159L19.3745 0.0399466C19.6783 -0.0559312 20.009 0.0237875 20.2363 0.246782C20.4711 0.474085 20.5584 0.814503 20.4604 1.12583L20.4606 1.12617ZM13.5661 6.95203C13.23 6.61809 12.6871 6.61809 12.351 6.95203L6.25791 13.0451C5.92396 13.3812 5.92396 13.9242 6.25791 14.2603C6.59403 14.5942 7.13696 14.5942 7.47305 14.2603L13.5661 8.16717C13.8958 7.82675 13.8882 7.28382 13.5489 6.95203H13.5661Z" fill="white"/>
</svg>
