<svg width="1440" height="925" viewBox="0 0 1440 925" fill="none" xmlns="http://www.w3.org/2000/svg">
<g opacity="0.3" filter="url(#filter0_f_2_8768)">
<path d="M117 644.728C117 556.292 164.722 474.603 248.051 444.983C352.698 407.787 514.576 366 713.719 366C914.323 366 1081.04 408.402 1189.07 445.801C1273.67 475.09 1323 557.468 1323 646.999C1323 781.757 1213.76 891 1079 891H363.272C227.26 891 117 780.74 117 644.728Z" fill="#879BD5"/>
</g>
<g opacity="0.5" filter="url(#filter1_f_2_8768)">
<path d="M560.949 485.684C472.759 397.493 472.759 254.507 560.949 166.316C649.14 78.1257 792.126 78.1257 880.316 166.316C968.507 254.507 968.507 397.493 880.316 485.684C792.126 573.874 649.14 573.874 560.949 485.684Z" fill="url(#paint0_linear_2_8768)"/>
</g>
<g opacity="0.8" filter="url(#filter2_f_2_8768)">
<ellipse cx="367.5" cy="369" rx="13.5" ry="13" fill="url(#paint1_linear_2_8768)"/>
</g>
<g opacity="0.8" filter="url(#filter3_f_2_8768)">
<ellipse cx="417.761" cy="305.807" rx="21.7607" ry="20.8072" fill="url(#paint2_linear_2_8768)"/>
</g>
<defs>
<filter id="filter0_f_2_8768" x="-183" y="66" width="1806" height="1125" filterUnits="userSpaceOnUse" color-interpolation-filters="sRGB">
<feFlood flood-opacity="0" result="BackgroundImageFix"/>
<feBlend mode="normal" in="SourceGraphic" in2="BackgroundImageFix" result="shape"/>
<feGaussianBlur stdDeviation="150" result="effect1_foregroundBlur_2_8768"/>
</filter>
<filter id="filter1_f_2_8768" x="394.806" y="0.17334" width="651.653" height="651.653" filterUnits="userSpaceOnUse" color-interpolation-filters="sRGB">
<feFlood flood-opacity="0" result="BackgroundImageFix"/>
<feBlend mode="normal" in="SourceGraphic" in2="BackgroundImageFix" result="shape"/>
<feGaussianBlur stdDeviation="50" result="effect1_foregroundBlur_2_8768"/>
</filter>
<filter id="filter2_f_2_8768" x="337" y="339" width="61" height="60" filterUnits="userSpaceOnUse" color-interpolation-filters="sRGB">
<feFlood flood-opacity="0" result="BackgroundImageFix"/>
<feBlend mode="normal" in="SourceGraphic" in2="BackgroundImageFix" result="shape"/>
<feGaussianBlur stdDeviation="8.5" result="effect1_foregroundBlur_2_8768"/>
</filter>
<filter id="filter3_f_2_8768" x="350" y="239" width="135.521" height="133.614" filterUnits="userSpaceOnUse" color-interpolation-filters="sRGB">
<feFlood flood-opacity="0" result="BackgroundImageFix"/>
<feBlend mode="normal" in="SourceGraphic" in2="BackgroundImageFix" result="shape"/>
<feGaussianBlur stdDeviation="23" result="effect1_foregroundBlur_2_8768"/>
</filter>
<linearGradient id="paint0_linear_2_8768" x1="915.584" y1="-23.0832" x2="558.514" y2="515.457" gradientUnits="userSpaceOnUse">
<stop stop-color="#5DFFC5"/>
<stop offset="0.378806" stop-color="#F19090"/>
<stop offset="1" stop-color="#7D92FF"/>
</linearGradient>
<linearGradient id="paint1_linear_2_8768" x1="369.372" y1="356" x2="367.873" y2="382.022" gradientUnits="userSpaceOnUse">
<stop stop-color="#1ACFF6"/>
<stop offset="0.520201" stop-color="#766AFF"/>
<stop offset="1" stop-color="#9718E5"/>
</linearGradient>
<linearGradient id="paint2_linear_2_8768" x1="420.779" y1="285" x2="418.396" y2="326.651" gradientUnits="userSpaceOnUse">
<stop stop-color="#1ACFF6"/>
<stop offset="0.520201" stop-color="#766AFF"/>
<stop offset="1" stop-color="#9718E5"/>
</linearGradient>
</defs>
</svg>
