<svg width="728" height="652" viewBox="0 0 728 652" fill="none" xmlns="http://www.w3.org/2000/svg">
<g opacity="0.5" filter="url(#filter0_f_2_8768)">
<path d="M223.949 485.684C135.759 397.493 135.759 254.507 223.949 166.316C312.14 78.1257 455.126 78.1257 543.316 166.316C631.507 254.507 631.507 397.493 543.316 485.684C455.126 573.874 312.14 573.874 223.949 485.684Z" fill="url(#paint0_linear_2_8768)"/>
</g>
<path d="M159.52 304.307C-116.424 488.653 201.904 525.074 408.619 441.356C615.334 357.638 701.741 279.389 691.134 228.611C680.527 177.833 573.393 158.684 395.57 216.471" stroke="url(#paint1_linear_2_8768)" stroke-width="3" stroke-linecap="round"/>
<rect x="351.616" y="135.924" width="59.7904" height="28.1366" fill="url(#paint2_linear_2_8768)"/>
<rect x="356.011" y="130.648" width="19.3439" height="16.7061" fill="url(#paint3_linear_2_8768)"/>
<rect x="386.785" y="130.648" width="19.3439" height="16.7061" fill="url(#paint4_linear_2_8768)"/>
<rect x="328.754" y="159.665" width="107.271" height="109.909" rx="4" fill="url(#paint5_linear_2_8768)"/>
<rect x="344.253" y="262.539" width="11.4305" height="15.8269" fill="url(#paint6_linear_2_8768)"/>
<rect x="411.731" y="262.539" width="11.4305" height="15.8269" fill="url(#paint7_linear_2_8768)"/>
<path d="M404.758 171.095H397.258V238.879H391.969V171.095H346.107V259.166H353.607V178.594L384.469 178.594V246.379L404.758 246.378L404.758 171.095Z" fill="url(#paint8_linear_2_8768)"/>
<path d="M379.181 183.882H358.895V259.166H366.395V191.382L371.682 191.382V246.379H379.181V183.882Z" fill="url(#paint9_linear_2_8768)"/>
<path d="M417.546 171.095H410.046V251.667H371.684V259.166L417.546 259.166V171.095Z" fill="url(#paint10_linear_2_8768)"/>
<path d="M377.992 142.079C377.992 142.779 378.317 143.45 378.894 143.944C379.471 144.439 380.254 144.717 381.07 144.717C381.886 144.717 382.669 144.439 383.246 143.944C383.823 143.45 384.147 142.779 384.147 142.079L381.07 142.079L377.992 142.079Z" fill="white"/>
<circle cx="396.017" cy="139.001" r="5.71525" fill="url(#paint11_linear_2_8768)"/>
<circle cx="366.122" cy="139.001" r="5.71525" fill="url(#paint12_linear_2_8768)"/>
<path d="M240.633 267.876C-90.3041 287.754 153.637 485.166 371.459 518.38C589.28 551.595 704.264 527.215 723.562 476.791C742.859 426.367 664.573 353.832 485.07 312.671" stroke="url(#paint13_linear_2_8768)" stroke-width="3" stroke-linecap="round" stroke-dasharray="6 6"/>
<g opacity="0.8" filter="url(#filter1_f_2_8768)">
<ellipse cx="30.5" cy="369" rx="13.5" ry="13" fill="url(#paint14_linear_2_8768)"/>
</g>
<g opacity="0.8" filter="url(#filter2_f_2_8768)">
<ellipse cx="80.7607" cy="305.807" rx="21.7607" ry="20.8072" fill="url(#paint15_linear_2_8768)"/>
</g>
<defs>
<filter id="filter0_f_2_8768" x="57.8064" y="0.17334" width="651.653" height="651.653" filterUnits="userSpaceOnUse" color-interpolation-filters="sRGB">
<feFlood flood-opacity="0" result="BackgroundImageFix"/>
<feBlend mode="normal" in="SourceGraphic" in2="BackgroundImageFix" result="shape"/>
<feGaussianBlur stdDeviation="50" result="effect1_foregroundBlur_2_8768"/>
</filter>
<filter id="filter1_f_2_8768" x="0" y="339" width="61" height="60" filterUnits="userSpaceOnUse" color-interpolation-filters="sRGB">
<feFlood flood-opacity="0" result="BackgroundImageFix"/>
<feBlend mode="normal" in="SourceGraphic" in2="BackgroundImageFix" result="shape"/>
<feGaussianBlur stdDeviation="8.5" result="effect1_foregroundBlur_2_8768"/>
</filter>
<filter id="filter2_f_2_8768" x="13" y="239" width="135.521" height="133.614" filterUnits="userSpaceOnUse" color-interpolation-filters="sRGB">
<feFlood flood-opacity="0" result="BackgroundImageFix"/>
<feBlend mode="normal" in="SourceGraphic" in2="BackgroundImageFix" result="shape"/>
<feGaussianBlur stdDeviation="23" result="effect1_foregroundBlur_2_8768"/>
</filter>
<linearGradient id="paint0_linear_2_8768" x1="578.584" y1="-23.0832" x2="221.514" y2="515.457" gradientUnits="userSpaceOnUse">
<stop stop-color="#5DFFC5"/>
<stop offset="0.378806" stop-color="#F19090"/>
<stop offset="1" stop-color="#7D92FF"/>
</linearGradient>
<linearGradient id="paint1_linear_2_8768" x1="652.631" y1="538.493" x2="501.277" y2="195.085" gradientUnits="userSpaceOnUse">
<stop stop-color="#766AFF"/>
<stop offset="0.359375" stop-color="#9718E5"/>
<stop offset="0.671875" stop-color="#1ACFF6"/>
<stop offset="1" stop-color="#9718E5" stop-opacity="0"/>
</linearGradient>
<linearGradient id="paint2_linear_2_8768" x1="368.017" y1="139.591" x2="362.669" y2="163.058" gradientUnits="userSpaceOnUse">
<stop stop-color="#150333"/>
<stop offset="1" stop-color="#090B12"/>
</linearGradient>
<linearGradient id="paint3_linear_2_8768" x1="367.024" y1="130.648" x2="366.16" y2="147.379" gradientUnits="userSpaceOnUse">
<stop stop-color="#1ACFF6"/>
<stop offset="0.520201" stop-color="#766AFF"/>
<stop offset="1" stop-color="#9718E5"/>
</linearGradient>
<linearGradient id="paint4_linear_2_8768" x1="397.798" y1="130.648" x2="396.934" y2="147.379" gradientUnits="userSpaceOnUse">
<stop stop-color="#1ACFF6"/>
<stop offset="0.520201" stop-color="#766AFF"/>
<stop offset="1" stop-color="#9718E5"/>
</linearGradient>
<linearGradient id="paint5_linear_2_8768" x1="358.179" y1="173.986" x2="319.787" y2="251.369" gradientUnits="userSpaceOnUse">
<stop stop-color="#150333"/>
<stop offset="1" stop-color="#090B12"/>
</linearGradient>
<linearGradient id="paint6_linear_2_8768" x1="347.388" y1="264.601" x2="340.965" y2="274.181" gradientUnits="userSpaceOnUse">
<stop stop-color="#150333"/>
<stop offset="1" stop-color="#090B12"/>
</linearGradient>
<linearGradient id="paint7_linear_2_8768" x1="414.867" y1="264.601" x2="408.444" y2="274.181" gradientUnits="userSpaceOnUse">
<stop stop-color="#150333"/>
<stop offset="1" stop-color="#090B12"/>
</linearGradient>
<linearGradient id="paint8_linear_2_8768" x1="386.78" y1="171.095" x2="380.293" y2="259.053" gradientUnits="userSpaceOnUse">
<stop stop-color="#1ACFF6"/>
<stop offset="0.520201" stop-color="#766AFF"/>
<stop offset="1" stop-color="#9718E5"/>
</linearGradient>
<linearGradient id="paint9_linear_2_8768" x1="386.78" y1="171.095" x2="380.293" y2="259.053" gradientUnits="userSpaceOnUse">
<stop stop-color="#1ACFF6"/>
<stop offset="0.520201" stop-color="#766AFF"/>
<stop offset="1" stop-color="#9718E5"/>
</linearGradient>
<linearGradient id="paint10_linear_2_8768" x1="386.78" y1="171.095" x2="380.293" y2="259.053" gradientUnits="userSpaceOnUse">
<stop stop-color="#1ACFF6"/>
<stop offset="0.520201" stop-color="#766AFF"/>
<stop offset="1" stop-color="#9718E5"/>
</linearGradient>
<linearGradient id="paint11_linear_2_8768" x1="393.437" y1="134.776" x2="389.503" y2="142.9" gradientUnits="userSpaceOnUse">
<stop stop-color="#150333"/>
<stop offset="1" stop-color="#090B12"/>
</linearGradient>
<linearGradient id="paint12_linear_2_8768" x1="363.543" y1="134.776" x2="359.609" y2="142.9" gradientUnits="userSpaceOnUse">
<stop stop-color="#150333"/>
<stop offset="1" stop-color="#090B12"/>
</linearGradient>
<linearGradient id="paint13_linear_2_8768" x1="520.149" y1="730.938" x2="566.375" y2="346.418" gradientUnits="userSpaceOnUse">
<stop stop-color="#766AFF"/>
<stop offset="0.359375" stop-color="#9718E5"/>
<stop offset="0.671875" stop-color="#1ACFF6"/>
<stop offset="1" stop-color="#9718E5" stop-opacity="0"/>
</linearGradient>
<linearGradient id="paint14_linear_2_8768" x1="32.3723" y1="356" x2="30.8733" y2="382.022" gradientUnits="userSpaceOnUse">
<stop stop-color="#1ACFF6"/>
<stop offset="0.520201" stop-color="#766AFF"/>
<stop offset="1" stop-color="#9718E5"/>
</linearGradient>
<linearGradient id="paint15_linear_2_8768" x1="83.7786" y1="285" x2="81.3961" y2="326.651" gradientUnits="userSpaceOnUse">
<stop stop-color="#1ACFF6"/>
<stop offset="0.520201" stop-color="#766AFF"/>
<stop offset="1" stop-color="#9718E5"/>
</linearGradient>
</defs>
</svg>
